<svg width="78.000000" height="34.000000" viewBox="0 0 78 34" fill="none" xmlns="http://www.w3.org/2000/svg" xmlns:xlink="http://www.w3.org/1999/xlink">
	<desc>
			Created with Pixso.
	</desc>
	<defs>
		<clipPath id="clip23_31932">
			<rect id="Logo" width="78.625000" height="34.000000" transform="translate(-0.955078 0.000000)" fill="white" fill-opacity="0"/>
		</clipPath>
	</defs>
	<rect id="Logo" width="78.625000" height="34.000000" transform="translate(-0.955078 0.000000)" fill="#FFFFFF" fill-opacity="0"/>
	<g clip-path="url(#clip23_31932)">
		<path id="Vector" d="M9.85 26.96C8.67 27.16 7.47 27.23 6.22 27.39L2.42 16.27L2.42 27.87C1.24 27.99 0.16 28.16 -0.96 28.33L-0.96 7.08L2.19 7.08L6.51 19.13L6.51 7.08L9.85 7.08L9.85 26.96ZM16.39 14.86C17.68 14.86 19.65 14.8 20.83 14.8L20.83 18.12C19.36 18.12 17.63 18.12 16.39 18.18L16.39 23.12C18.34 22.99 20.29 22.83 22.26 22.76L22.26 25.96L13.07 26.69L13.07 7.08L22.26 7.08L22.26 10.4L16.39 10.4L16.39 14.86ZM34.61 10.4L31.16 10.4L31.16 25.67C30.04 25.67 28.92 25.67 27.84 25.71L27.84 10.4L24.4 10.4L24.4 7.08L34.61 7.08L34.61 10.4ZM40 14.63L44.55 14.63L44.55 17.95L40 17.95L40 25.48L36.75 25.48L36.75 7.08L46.02 7.08L46.02 10.4L40 10.4L40 14.63ZM51.42 22.58C53.31 22.62 55.22 22.77 57.06 22.87L57.06 26.15C54.09 25.96 51.13 25.77 48.1 25.71L48.1 7.08L51.42 7.08L51.42 22.58ZM59.86 26.38C60.92 26.44 62.04 26.5 63.12 26.62L63.12 7.08L59.86 7.08L59.86 26.38ZM77.67 7.08L73.46 17.18L77.67 28.33C76.42 28.16 75.18 27.93 73.93 27.72L71.55 21.58L69.12 27.23C67.92 27.02 66.75 26.96 65.55 26.79L69.83 17.06L65.96 7.08L69.53 7.08L71.71 12.66L74.04 7.08L77.67 7.08L77.67 7.08Z" fill="#4C4C4D" fill-opacity="1.000000" fill-rule="nonzero"/>
	</g>
</svg>
